<svg xmlns="http://www.w3.org/2000/svg" xmlns:xlink="http://www.w3.org/1999/xlink" width="100" zoomAndPan="magnify" viewBox="0 0 75 74.999997" height="100" preserveAspectRatio="xMidYMid meet" version="1.0"><defs><filter x="0%" y="0%" width="100%" height="100%" id="97ae2b83c2"><feColorMatrix values="0 0 0 0 1 0 0 0 0 1 0 0 0 0 1 0 0 0 1 0" color-interpolation-filters="sRGB"/></filter><mask id="e870d94fc3"><g filter="url(#97ae2b83c2)"><rect x="-7.5" width="90" fill="#000000" y="-7.5" height="89.999996" fill-opacity="0.2"/></g></mask><clipPath id="bd1144d17b"><path d="M 0 0 L 2.25 0 L 2.25 2.25 L 0 2.25 Z M 0 0 " clip-rule="nonzero"/></clipPath><clipPath id="1fa4fe82e6"><rect x="0" width="3" y="0" height="3"/></clipPath><mask id="4083211e4c"><g filter="url(#97ae2b83c2)"><rect x="-7.5" width="90" fill="#000000" y="-7.5" height="89.999996" fill-opacity="0.2"/></g></mask><clipPath id="e8863f4c6f"><path d="M 0 0.976562 L 2.25 0.976562 L 2.25 3 L 0 3 Z M 0 0.976562 " clip-rule="nonzero"/></clipPath><clipPath id="60be791a4e"><rect x="0" width="3" y="0" height="3"/></clipPath><mask id="378992e7b1"><g filter="url(#97ae2b83c2)"><rect x="-7.5" width="90" fill="#000000" y="-7.5" height="89.999996" fill-opacity="0.2"/></g></mask><clipPath id="97719fad6b"><path d="M 0.976562 0.976562 L 3 0.976562 L 3 3 L 0.976562 3 Z M 0.976562 0.976562 " clip-rule="nonzero"/></clipPath><clipPath id="ea0edeb805"><rect x="0" width="3" y="0" height="3"/></clipPath><mask id="2ab5c8bf8b"><g filter="url(#97ae2b83c2)"><rect x="-7.5" width="90" fill="#000000" y="-7.5" height="89.999996" fill-opacity="0.2"/></g></mask><clipPath id="0a478b2f67"><path d="M 0.976562 0 L 3 0 L 3 2.25 L 0.976562 2.25 Z M 0.976562 0 " clip-rule="nonzero"/></clipPath><clipPath id="97aace03f2"><rect x="0" width="3" y="0" height="3"/></clipPath></defs><g mask="url(#e870d94fc3)"><g transform="matrix(1, 0, 0, 1, 0, -0.000000000000001893)"><g clip-path="url(#1fa4fe82e6)"><g clip-path="url(#bd1144d17b)"><path fill="#f1f2f2" d="M 0.015625 0.015625 L 2.234375 0.015625 L 2.234375 2.234375 L 0.015625 2.234375 Z M 0.015625 0.015625 " fill-opacity="1" fill-rule="nonzero"/><path fill="#f1f2f2" d="M 2.234375 2.25 L 0.015625 2.25 C 0.0078125 2.25 0 2.242188 0 2.234375 L 0 0.015625 C 0 0.0078125 0.0078125 0 0.015625 0 L 2.234375 0 C 2.242188 0 2.25 0.0078125 2.25 0.015625 L 2.25 2.234375 C 2.25 2.242188 2.242188 2.25 2.234375 2.25 Z M 0.03125 2.21875 L 2.21875 2.21875 L 2.21875 0.03125 L 0.03125 0.03125 Z M 0.03125 2.21875 " fill-opacity="1" fill-rule="nonzero"/></g></g></g></g><g mask="url(#4083211e4c)"><g transform="matrix(1, 0, 0, 1, 0, 72)"><g clip-path="url(#60be791a4e)"><g clip-path="url(#e8863f4c6f)"><path fill="#f1f2f2" d="M 0.015625 0.988281 L 2.234375 0.988281 L 2.234375 3.210938 L 0.015625 3.210938 Z M 0.015625 0.988281 " fill-opacity="1" fill-rule="nonzero"/><path fill="#f1f2f2" d="M 2.234375 3.226562 L 0.015625 3.226562 C 0.0078125 3.226562 0 3.21875 0 3.210938 L 0 0.988281 C 0 0.980469 0.0078125 0.976562 0.015625 0.976562 L 2.234375 0.976562 C 2.242188 0.976562 2.25 0.980469 2.25 0.988281 L 2.25 3.210938 C 2.25 3.21875 2.242188 3.226562 2.234375 3.226562 Z M 0.03125 3.195312 L 2.21875 3.195312 L 2.21875 1.003906 L 0.03125 1.003906 Z M 0.03125 3.195312 " fill-opacity="1" fill-rule="nonzero"/></g></g></g></g><g mask="url(#378992e7b1)"><g transform="matrix(1, 0, 0, 1, 72, 72)"><g clip-path="url(#ea0edeb805)"><g clip-path="url(#97719fad6b)"><path fill="#f1f2f2" d="M 0.988281 0.988281 L 3.210938 0.988281 L 3.210938 3.210938 L 0.988281 3.210938 Z M 0.988281 0.988281 " fill-opacity="1" fill-rule="nonzero"/><path fill="#f1f2f2" d="M 3.210938 3.226562 L 0.988281 3.226562 C 0.980469 3.226562 0.976562 3.21875 0.976562 3.210938 L 0.976562 0.988281 C 0.976562 0.980469 0.980469 0.976562 0.988281 0.976562 L 3.210938 0.976562 C 3.21875 0.976562 3.226562 0.980469 3.226562 0.988281 L 3.226562 3.210938 C 3.226562 3.21875 3.21875 3.226562 3.210938 3.226562 Z M 1.003906 3.195312 L 3.195312 3.195312 L 3.195312 1.003906 L 1.003906 1.003906 Z M 1.003906 3.195312 " fill-opacity="1" fill-rule="nonzero"/></g></g></g></g><g mask="url(#2ab5c8bf8b)"><g transform="matrix(1, 0, 0, 1, 72, -0.000000000000001893)"><g clip-path="url(#97aace03f2)"><g clip-path="url(#0a478b2f67)"><path fill="#f1f2f2" d="M 0.988281 0.015625 L 3.210938 0.015625 L 3.210938 2.234375 L 0.988281 2.234375 Z M 0.988281 0.015625 " fill-opacity="1" fill-rule="nonzero"/><path fill="#f1f2f2" d="M 3.210938 2.25 L 0.988281 2.25 C 0.980469 2.25 0.976562 2.242188 0.976562 2.234375 L 0.976562 0.015625 C 0.976562 0.0078125 0.980469 0 0.988281 0 L 3.210938 0 C 3.21875 0 3.226562 0.0078125 3.226562 0.015625 L 3.226562 2.234375 C 3.226562 2.242188 3.21875 2.25 3.210938 2.25 Z M 1.003906 2.21875 L 3.195312 2.21875 L 3.195312 0.03125 L 1.003906 0.03125 Z M 1.003906 2.21875 " fill-opacity="1" fill-rule="nonzero"/></g></g></g></g></svg>