<?xml version="1.0" encoding="UTF-8" standalone="no"?>
<svg width="277px" height="81px" viewBox="0 0 277 81" version="1.1" xmlns="http://www.w3.org/2000/svg" xmlns:xlink="http://www.w3.org/1999/xlink">
    <!-- Generator: Sketch 41.2 (35397) - http://www.bohemiancoding.com/sketch -->
    <title>JLogo-landscape</title>
    <desc>Created with Sketch.</desc>
    <defs></defs>
    <g id="Symbols" stroke="none" stroke-width="1" fill="none" fill-rule="evenodd">
        <g id="JLogo-landscape" fill="#947E52">
            <g>
                <path d="M116.1294,47.9546 C117.0134,47.9546 117.7474,47.8226 118.3294,47.5546 C118.9104,47.2876 119.3754,46.9076 119.7244,46.4196 C120.0764,45.9316 120.3194,45.3496 120.4584,44.6736 C120.5984,43.9986 120.6684,43.2546 120.6684,42.4406 L120.6684,28.6846 L125.9404,28.6846 L125.9404,41.9846 C125.9404,43.2656 125.8344,44.5166 125.6254,45.7386 C125.4164,46.9616 124.9914,48.0426 124.3524,48.9866 C123.7114,49.9276 122.8044,50.6906 121.6284,51.2726 C120.4524,51.8536 118.8994,52.1456 116.9674,52.1456 C116.5714,52.1456 116.1414,52.1226 115.6764,52.0746 C115.2094,52.0296 114.7334,51.9586 114.2454,51.8656 C113.7564,51.7716 113.2724,51.6496 112.7964,51.4996 C112.3184,51.3486 111.8694,51.1676 111.4514,50.9576 L111.4514,46.5936 C112.2184,47.0376 113.0294,47.3726 113.8774,47.6056 C114.7274,47.8386 115.4784,47.9546 116.1294,47.9546" id="Fill-1"></path>
                <path d="M158.0778,48.0956 L149.2458,48.0956 L147.6378,51.7266 L142.4688,51.7266 L153.3988,28.2656 L154.1648,28.2656 L164.9208,51.7266 L159.6468,51.7266 L158.0778,48.0956 Z M150.8148,44.5336 L156.5428,44.5336 L153.7838,38.1446 L153.6448,38.1446 L150.8148,44.5336 Z" id="Fill-3"></path>
                <path d="M180.4916,40.3791 C180.4916,38.7051 180.7836,37.1271 181.3626,35.6481 C181.9466,34.1711 182.7836,32.8811 183.8796,31.7741 C184.9706,30.6681 186.2996,29.7951 187.8596,29.1561 C189.4166,28.5151 191.1746,28.1961 193.1296,28.1961 C194.0136,28.1961 195.0666,28.2831 196.2886,28.4561 C197.5126,28.6321 198.6456,28.9631 199.6946,29.4521 L199.6946,33.9541 C198.6666,33.4191 197.6216,33.0431 196.5526,32.8211 C195.4826,32.6001 194.4796,32.4891 193.5486,32.4891 C192.4316,32.4891 191.3996,32.6711 190.4566,33.0301 C189.5176,33.3921 188.7016,33.9141 188.0156,34.6021 C187.3276,35.2891 186.7856,36.1201 186.3906,37.0981 C185.9946,38.0751 185.7996,39.1931 185.7996,40.4501 C185.7996,41.4961 185.9426,42.4801 186.2346,43.3991 C186.5226,44.3201 186.9666,45.1171 187.5596,45.7921 C188.1566,46.4671 188.9006,47.0011 189.7966,47.3981 C190.6886,47.7921 191.7546,47.9911 192.9906,47.9911 C193.4766,47.9911 194.0136,47.9451 194.5976,47.8511 C195.1776,47.7581 195.6766,47.6301 196.0946,47.4661 L196.0946,39.8551 L200.7046,39.8551 L200.7046,50.7821 C199.5626,51.2511 198.2856,51.5871 196.8646,51.7971 C195.4446,52.0041 194.0136,52.1111 192.5706,52.1111 C190.5916,52.1111 188.8446,51.8191 187.3346,51.2381 C185.8206,50.6561 184.5606,49.8421 183.5456,48.7931 C182.5336,47.7471 181.7686,46.5071 181.2616,45.0751 C180.7446,43.6431 180.4916,42.0781 180.4916,40.3791" id="Fill-4"></path>
                <polygon id="Fill-6" points="236.7309 51.7262 220.4629 51.7262 220.4629 28.6842 236.0669 28.6842 236.0669 32.6992 225.6659 32.6992 225.6659 37.7952 234.9839 37.7952 234.9839 41.6722 225.6659 41.6722 225.6659 47.7122 236.7309 47.7122"></polygon>
                <path d="M265.3167,40.6595 L259.4537,51.7265 L253.8647,51.7265 L260.7097,39.8225 L254.3187,28.7185 L259.9057,28.7185 L265.3167,39.0535 L270.6917,28.7185 L276.3127,28.7185 L269.8547,39.8225 C270.9707,41.8225 272.1177,43.8075 273.2927,45.7735 C274.4687,47.7415 275.6147,49.7255 276.7327,51.7265 L271.1117,51.7265 L265.3167,40.6595 Z" id="Fill-7"></path>
                <polygon id="Fill-9" points="60.4872 -0.0002 57.6142 5.7558 24.2762 72.1228 13.3222 72.1228 29.3572 40.1918 29.3432 40.1638 29.3522 40.1408 13.3462 8.2678 33.4892 8.2678 29.3882 0.0448 0.0002 0.0448 20.1542 40.1708 0.0002 80.2968 0.0232 80.2968 0.0002 80.3408 29.3882 80.3408 65.5952 8.2178 76.5512 8.2178 60.5132 40.1478 60.5282 40.1798 60.5182 40.2018 76.5302 72.0768 56.3842 72.0768 60.4872 80.2968 89.8752 80.2968 69.7202 40.1708 89.8752 0.0448 89.8542 0.0448 89.8752 -0.0002"></polygon>
            </g>
        </g>
    </g>
</svg>